<svg width="702" height="134" viewBox="0 0 702 134" fill="none" xmlns="http://www.w3.org/2000/svg">
<rect width="702" height="134" fill="#D1D5DB"/>
<path d="M236.145 101L240.16 88.02H265.625L269.64 101H288.175L264.69 27.19H242.305L217.445 101H236.145ZM261.61 74.985H244.615L253.25 47.98L261.61 74.985ZM317.05 101V25.1H299.45V101H317.05ZM353.35 127.29L353.349 98.719L353.404 98.7692C353.956 99.2796 354.547 99.7372 355.177 100.142L355.495 100.34C358.172 101.953 361.508 102.76 365.505 102.76C370.088 102.76 374.387 101.623 378.402 99.35C382.417 97.0767 385.663 93.795 388.138 89.505C390.613 85.215 391.85 80.0267 391.85 73.94C391.85 67.8167 390.631 62.61 388.193 58.32C385.754 54.03 382.592 50.7483 378.705 48.475C374.818 46.2017 370.712 45.065 366.385 45.065C363.122 45.065 360.042 45.8992 357.145 47.5675C355.059 48.7687 353.264 50.4974 351.758 52.7535L351.541 53.086L350.105 46.825H335.75V127.29H353.35ZM362.7 86.7C361.013 86.7 359.455 86.3883 358.025 85.765C356.595 85.1417 355.458 84.28 354.615 83.18C353.772 82.08 353.35 80.7967 353.35 79.33H353.349V70.42L353.355 70.042C353.403 68.4181 353.761 66.9802 354.428 65.7281L354.587 65.4425C355.412 64.0308 356.558 62.94 358.025 62.17C359.492 61.4 361.16 61.015 363.03 61.015C365.34 61.015 367.329 61.5467 368.997 62.61C370.666 63.6733 371.958 65.1767 372.875 67.12C373.792 69.0633 374.25 71.3367 374.25 73.94C374.25 77.02 373.636 79.495 372.408 81.365C371.179 83.235 369.676 84.5917 367.897 85.435C366.119 86.2783 364.387 86.7 362.7 86.7ZM416.325 39.84C419.552 39.84 422.1 38.9875 423.97 37.2825C425.84 35.5775 426.775 33.1667 426.775 30.05C426.775 27.0067 425.84 24.5775 423.97 22.7625C422.1 20.9475 419.552 20.04 416.325 20.04C412.988 20.04 410.413 20.9475 408.598 22.7625C406.783 24.5775 405.875 27.0067 405.875 30.05C405.875 33.1667 406.783 35.5775 408.598 37.2825C410.413 38.9875 412.988 39.84 416.325 39.84ZM425.125 101V46.495H407.525V101H425.125ZM462.965 101V78.175L462.968 77.6151C463.01 73.9158 463.468 70.8908 464.343 68.5401L464.478 68.1925C465.486 65.6808 466.833 63.8567 468.52 62.72C470.207 61.5833 472.058 61.015 474.075 61.015C476.055 61.015 477.742 61.7025 479.135 63.0775C480.528 64.4525 481.225 66.57 481.225 69.43V101H498.935V69.43C498.935 64.7 498.238 60.5017 496.845 56.835C495.452 53.1683 493.279 50.29 490.328 48.2C487.376 46.11 483.572 45.065 478.915 45.065C474.845 45.065 471.206 46.2017 467.997 48.475C466.006 49.886 464.276 51.7986 462.807 54.2125L462.656 54.466L460.875 46.825H445.365V101H462.965ZM537.82 102.76C542.293 102.76 546.244 101.953 549.672 100.34C553.101 98.7267 555.887 96.545 558.032 93.795C560.177 91.045 561.525 87.9833 562.075 84.61H544.585C544.108 86.04 543.265 87.085 542.055 87.745C540.845 88.405 539.433 88.735 537.82 88.735C535.84 88.735 534.199 88.2675 532.898 87.3325C531.596 86.3975 530.615 85.0867 529.955 83.4C529.295 81.7133 528.965 79.715 528.965 77.405L528.966 77.515H561.525C562.393 73.6245 562.563 69.8409 562.032 66.1643L561.938 65.5525C561.296 61.6842 559.939 58.21 557.867 55.13C555.796 52.05 553.073 49.6025 549.7 47.7875C546.327 45.9725 542.367 45.065 537.82 45.065C533.237 45.065 528.947 46.2017 524.95 48.475C520.953 50.7483 517.727 54.0208 515.27 58.2925C512.813 62.5642 511.585 67.6883 511.585 73.665C511.585 79.6417 512.822 84.8117 515.297 89.175C517.772 93.5383 521.008 96.8933 525.005 99.24C529.002 101.587 533.273 102.76 537.82 102.76ZM546.179 68.605H529.044L529.045 68.5899C529.179 67.0857 529.48 65.7486 529.947 64.5785L530.093 64.2325C530.844 62.5275 531.907 61.2258 533.282 60.3275C534.657 59.4292 536.28 58.98 538.15 58.98C539.837 58.98 541.221 59.3192 542.302 59.9975C543.384 60.6758 544.218 61.5742 544.805 62.6925C545.392 63.8108 545.786 65.03 545.987 66.35C546.088 67.01 546.15 67.6654 546.173 68.3163L546.179 68.605ZM580.775 101.99C584.258 101.99 587.137 100.936 589.41 98.8275C591.683 96.7192 592.82 94.0333 592.82 90.77C592.82 87.5067 591.683 84.7933 589.41 82.63C587.137 80.4667 584.258 79.385 580.775 79.385C577.292 79.385 574.459 80.4667 572.278 82.63C570.096 84.7933 569.005 87.5067 569.005 90.77C569.005 93.9967 570.096 96.6733 572.278 98.8C574.459 100.927 577.292 101.99 580.775 101.99ZM614.38 39.84C617.607 39.84 620.155 38.9875 622.025 37.2825C623.895 35.5775 624.83 33.1667 624.83 30.05C624.83 27.0067 623.895 24.5775 622.025 22.7625C620.155 20.9475 617.607 20.04 614.38 20.04C611.153 20.04 608.587 20.9475 606.68 22.7625C604.773 24.5775 603.82 27.0067 603.82 30.05C603.82 33.1667 604.773 35.5775 606.68 37.2825C608.587 38.9875 611.153 39.84 614.38 39.84ZM603.875 129.215C610.292 129.215 615.15 127.464 618.45 123.963C621.75 120.461 623.4 114.548 623.4 106.225V46.605H605.69V105.895C605.69 109.048 605.131 111.157 604.013 112.22C602.894 113.283 601.198 113.815 598.925 113.815C597.165 113.815 595.258 113.558 593.205 113.045C591.152 112.532 589.337 111.963 587.76 111.34V126.465C590.29 127.162 592.802 127.794 595.295 128.363C597.788 128.931 600.648 129.215 603.875 129.215ZM664.54 102.76C669.087 102.76 673.157 101.917 676.75 100.23C680.343 98.5433 683.176 96.3525 685.247 93.6575C687.319 90.9625 688.355 88.1117 688.355 85.105C688.355 81.805 687.292 79.055 685.165 76.855C683.038 74.655 680.123 72.8217 676.42 71.355L661.46 65.36C659.15 64.5533 657.995 63.4533 657.995 62.06C657.995 61.0333 658.545 60.2083 659.645 59.585C660.745 58.9617 662.248 58.65 664.155 58.65C666.465 58.65 668.115 59.0808 669.105 59.9425C670.095 60.8042 670.59 61.8217 670.59 62.995H686.705C686.668 57.7883 684.707 53.4983 680.82 50.125C676.933 46.7517 671.378 45.065 664.155 45.065C656.455 45.065 650.387 46.55 645.95 49.52C641.513 52.49 639.295 56.3767 639.295 61.18C639.295 64.59 640.349 67.5325 642.458 70.0075C644.566 72.4825 647.563 74.5267 651.45 76.14L664.595 81.255C665.988 81.805 667.015 82.355 667.675 82.905C668.335 83.455 668.665 84.1883 668.665 85.105C668.665 85.8017 668.427 86.4525 667.95 87.0575C667.473 87.6625 666.758 88.1483 665.805 88.515C664.852 88.8817 663.642 89.065 662.175 89.065C659.755 89.065 657.839 88.6983 656.427 87.965C655.016 87.2317 654.273 85.9117 654.2 84.005H638.305C638.268 88.2217 639.359 91.7142 641.578 94.4825C643.796 97.2508 646.885 99.3225 650.845 100.698C654.805 102.073 659.37 102.76 664.54 102.76Z" fill="#2D3441"/>
<path fill-rule="evenodd" clip-rule="evenodd" d="M149.52 22.3028L189.392 62L149.52 101.697L109.648 62L149.52 22.3028Z" fill="#77C1D2"/>
<path fill-rule="evenodd" clip-rule="evenodd" d="M49.8401 22.3028L132.5 104.6H52.7558L9.96802 62L49.8401 22.3028Z" fill="#2D3441"/>
</svg>
